<svg width="251" height="354" viewBox="0 0 251 354" fill="none" xmlns="http://www.w3.org/2000/svg">
<path d="M37.2769 301.981C57.3088 311.539 79.4958 315.68 101.627 313.993C123.758 312.305 145.061 304.848 163.412 292.363" stroke="#6553D5" stroke-width="4.62387" stroke-linecap="round" stroke-linejoin="round"/>
<path d="M129.048 173.904C138.716 176.224 146.585 178.683 152.029 180.508C149.268 217.59 154.504 254.832 167.384 289.715C157.544 296.806 130.393 314.348 92.1411 314.373C72.402 314.338 52.9389 309.734 35.2759 300.922C30.6481 294.477 28.0102 286.818 27.6886 278.891C24.4897 215.153 22.9008 183.273 37.941 171.083C56.1128 156.371 88.3496 164.114 129.048 173.904Z" fill="#191818" stroke="#6553D5" stroke-width="1.26106" stroke-linecap="round" stroke-linejoin="round"/>
<path d="M146.354 179.209C165.69 191.592 190.289 187.427 202.597 171.676C212.29 159.271 213.232 141.108 204.85 126.034C208.356 124.189 211.161 121.247 212.837 117.657C214.011 115.062 214.545 112.224 214.392 109.38C234.056 124.664 243.745 149.12 239.025 172.193C233.056 201.365 206.657 216.33 193.917 219.869C187.246 221.629 180.476 222.989 173.643 223.943C165.372 225.093 157.029 225.641 148.678 225.582" fill="#191818"/>
<path d="M146.354 179.209C165.69 191.592 190.289 187.427 202.597 171.676C212.29 159.271 213.232 141.108 204.85 126.034C208.356 124.189 211.161 121.247 212.837 117.657C214.011 115.062 214.545 112.224 214.392 109.38C234.056 124.664 243.745 149.12 239.025 172.193C233.056 201.365 206.657 216.33 193.917 219.869C187.246 221.629 180.476 222.989 173.643 223.943C165.372 225.093 157.029 225.641 148.678 225.582" stroke="#6553D5" stroke-width="1.26106" stroke-linecap="round" stroke-linejoin="round"/>
<path d="M204.85 126.034C204.639 126.103 204.415 126.128 204.194 126.106C203.126 125.992 202.21 124.718 201.815 122.953C204.386 121.93 206.642 120.245 208.351 118.068C212.189 113.129 211.647 107.501 211.491 106.24C211.912 106.21 213.232 106.185 214.014 107.055C214.699 107.808 214.594 108.85 214.602 109.577C214.643 112.954 213.754 116.278 212.032 119.183C210.311 122.089 207.823 124.465 204.841 126.051L204.85 126.034Z" stroke="#6553D5" stroke-width="1.26106" stroke-linecap="round" stroke-linejoin="round"/>
<path d="M204.69 121.032C203.154 118.371 200.959 116.149 198.318 114.579C198.805 113.292 199.064 111.929 199.083 110.553C199.069 107.651 198.062 104.841 196.229 102.591C201.82 103.757 207.025 106.318 211.361 110.035C211.13 112.583 210.24 115.026 208.78 117.127C207.684 118.682 206.295 120.009 204.69 121.032Z" fill="#191818" stroke="#6553D5" stroke-width="1.26106" stroke-linecap="round" stroke-linejoin="round"/>
<path d="M183.353 214.051L217.936 200.693L158.262 289.538L109.64 308.988L130.603 218.818L183.353 214.051Z" fill="#191818" stroke="#6553D5" stroke-width="1.26106" stroke-linecap="round" stroke-linejoin="round"/>
<path d="M143.475 295.457L183.353 214.056" stroke="#6553D5" stroke-width="1.26106" stroke-linecap="round" stroke-linejoin="round"/>
<path d="M119.338 267.272L159.973 261.77L185.825 248.499" stroke="#6553D5" stroke-width="1.26106" stroke-linecap="round" stroke-linejoin="round"/>
<path d="M130.456 286.995C131.931 286.1 133.478 285.066 135.08 283.885C137.705 281.924 140.161 279.747 142.423 277.378C144.832 277.272 147.225 276.936 149.569 276.373C152.562 275.668 155.451 274.58 158.166 273.136C160.022 272.109 161.779 270.913 163.416 269.563C166.338 267.231 168.972 264.56 171.264 261.606C172.6 260.009 172.853 258.437 172.281 257.886C171.835 257.465 170.932 257.684 170.545 257.802L164.483 263.863C167.666 260.304 170.553 256.49 173.113 252.459C174.041 250.996 174.897 249.557 175.682 248.142C175.72 247.15 175.497 246.208 174.963 245.986C174.282 245.7 172.97 246.541 172.142 248.377C169.843 252.562 166.789 256.285 163.134 259.357C164.761 258.047 166.251 256.575 167.582 254.964C168.796 253.493 168.468 253.615 171.663 248.684C173.559 245.763 174.538 244.388 174.849 242.093C174.938 241.433 175.173 239.626 174.429 239.218C173.685 238.81 172.172 239.39 171.449 241.068C168.619 246.52 164.825 251.415 160.251 255.515C165.457 251.411 169.057 245.609 170.423 239.121C170.423 239.046 170.389 238.087 169.704 237.68C169.019 237.272 167.83 237.57 167.22 238.604C164.243 244.056 159.846 248.601 154.496 251.757L137.644 259.567C136.548 256.09 136.548 252.359 137.644 248.882C137.644 248.739 137.825 247.352 137.224 247.032C136.623 246.713 135.496 247.377 134.55 248.882C131.298 254.16 129.902 260.374 130.586 266.537C129.776 268.027 128.652 269.325 127.293 270.34C125.935 271.356 124.372 272.066 122.713 272.422C127.041 276.129 129.802 281.34 130.439 287.004L130.456 286.995Z" fill="#191818" stroke="#6553D5" stroke-width="1.26106" stroke-linecap="round" stroke-linejoin="round"/>
<path d="M115.954 273.578L111.713 274.418C112.221 272.733 113.351 271.304 114.874 270.421C116.026 269.777 117.341 269.485 118.657 269.58C123.019 271.926 126.494 275.634 128.553 280.139C130.611 284.644 131.139 289.699 130.057 294.532C129.504 295.632 128.66 296.561 127.618 297.216C126.576 297.872 125.374 298.23 124.142 298.252" fill="#191818"/>
<path d="M115.954 273.578L111.713 274.418C112.221 272.733 113.351 271.304 114.874 270.421C116.026 269.777 117.341 269.485 118.657 269.58C123.019 271.926 126.494 275.634 128.553 280.139C130.611 284.644 131.139 289.699 130.057 294.532C129.504 295.632 128.66 296.561 127.618 297.216C126.576 297.872 125.374 298.23 124.142 298.252" stroke="#6553D5" stroke-width="1.26106" stroke-linecap="round" stroke-linejoin="round"/>
<path d="M68.0969 190.945C68.3771 191.441 68.6335 191.958 68.8661 192.496C71.7287 198.894 70.9679 205.489 69.7867 210.176C65.2719 217.32 63.0068 225.656 63.2848 234.103C63.5628 242.55 66.3712 250.718 71.3461 257.55C76.321 264.382 83.233 269.563 91.1865 272.42C99.1401 275.278 107.769 275.681 115.954 273.578C119.898 276.1 122.904 279.848 124.511 284.245C126.117 288.642 126.234 293.446 124.844 297.916C88.5134 317.193 43.4222 305.108 22.1777 271.493C2.05961 239.664 8.40693 196.544 37.7811 171.083" fill="#191818"/>
<path d="M68.0969 190.945C68.3771 191.441 68.6335 191.958 68.8661 192.496C71.7287 198.894 70.9679 205.489 69.7867 210.176C65.2719 217.32 63.0068 225.656 63.2848 234.103C63.5628 242.55 66.3712 250.718 71.3461 257.55C76.321 264.382 83.233 269.563 91.1865 272.42C99.1401 275.278 107.769 275.681 115.954 273.578C119.898 276.1 122.904 279.848 124.511 284.245C126.117 288.642 126.234 293.446 124.844 297.916C88.5134 317.193 43.4222 305.108 22.1777 271.493C2.05961 239.664 8.40693 196.544 37.7811 171.083" stroke="#6553D5" stroke-width="1.26106" stroke-linecap="round" stroke-linejoin="round"/>
<path d="M189.053 95.5922C203.19 105.285 199.759 118.014 193.698 135.181C187.636 152.348 168.057 151.154 173.71 165.476C179.364 179.797 173.71 185.896 173.71 185.896C170.183 186.32 166.616 186.278 163.101 185.77C161.786 185.589 160.488 185.308 159.217 184.93C156.854 184.202 157.014 183.858 154.126 182.874C152.627 182.41 151.159 181.849 149.733 181.193C149.048 180.831 148.355 180.436 148.355 180.436C147.867 180.154 147.514 179.944 147.438 179.898C146.13 179.173 144.766 178.552 143.361 178.04C140.977 177.178 140.326 177.199 135.109 175.711C130.208 174.311 129.498 174.084 128.863 173.916C123.781 172.559 115.378 172.567 101.01 179.242C100.066 180.773 98.6855 181.986 97.0465 182.727C94.8396 183.664 91.6366 183.883 87.2481 181.647C77.353 176.602 79.7742 177.203 71.4933 177.809C63.2124 178.414 35.7298 179.41 27.0537 158.002C18.3776 136.593 50.4925 118.01 50.4925 118.01C50.4925 118.01 57.5628 113.365 70.6694 110.939C83.776 108.514 84.8058 101.649 90.262 88.9254C95.7182 76.2013 113.087 69.3328 127.829 67.7186C142.571 66.1045 150.221 65.0914 167.199 72.3635C184.177 79.6356 191.247 90.9473 189.028 95.5922C188.71 96.3391 188.329 97.0577 187.889 97.7402C185.493 101.305 181.815 102.717 179.936 103.268" fill="#191818"/>
<path d="M189.053 95.5922C203.19 105.285 199.759 118.014 193.698 135.181C187.636 152.348 168.057 151.154 173.71 165.476C179.364 179.797 173.71 185.896 173.71 185.896C170.183 186.32 166.616 186.278 163.101 185.77C161.786 185.589 160.488 185.308 159.217 184.93C156.854 184.202 157.014 183.858 154.126 182.874C152.627 182.41 151.159 181.849 149.733 181.193C149.048 180.831 148.355 180.436 148.355 180.436C147.867 180.154 147.514 179.944 147.438 179.898C146.13 179.173 144.766 178.552 143.361 178.04C140.977 177.178 140.326 177.199 135.109 175.711C130.208 174.311 129.498 174.084 128.863 173.916C123.781 172.559 115.378 172.567 101.01 179.242C100.066 180.773 98.6855 181.986 97.0465 182.727C94.8396 183.664 91.6366 183.883 87.2481 181.647C77.353 176.602 79.7742 177.203 71.4933 177.809C63.2124 178.414 35.7298 179.41 27.0537 158.002C18.3776 136.593 50.4925 118.01 50.4925 118.01C50.4925 118.01 57.5628 113.365 70.6694 110.939C83.776 108.514 84.8058 101.649 90.262 88.9254C95.7182 76.2013 113.087 69.3328 127.829 67.7186C142.571 66.1045 150.221 65.0914 167.199 72.3635C184.177 79.6356 191.247 90.9473 189.028 95.5922C188.71 96.3391 188.329 97.0577 187.889 97.7402C185.493 101.305 181.815 102.717 179.936 103.268" stroke="#6553D5" stroke-width="1.26106" stroke-linecap="round" stroke-linejoin="round"/>
<path d="M120.607 146.783C123.011 154.267 127.631 160.844 133.857 165.644L138.834 169.923C140.873 169.977 142.912 169.836 144.925 169.503C166.388 165.917 177.825 141.183 180.612 134.702C182.206 127.753 180.167 121.746 176.287 119.939C175.501 119.573 173.962 119.065 171.6 119.548C170.878 119.875 170.096 120.049 169.303 120.059C168.51 120.069 167.724 119.916 166.994 119.608C166.263 119.3 165.604 118.845 165.058 118.27C164.512 117.696 164.09 117.014 163.819 116.269C162.325 113.186 159.836 110.697 156.753 109.203C150.511 106.261 144.592 108.909 143.748 109.304L130.645 122.003C130.746 118.548 128.745 115.529 125.832 114.529C123.049 113.571 119.947 114.638 118.459 116.475C116 119.519 117.009 125.862 122.452 130.607C114.535 137.609 107.884 145.923 102.793 155.185C104.253 157.494 105.1 160.138 105.252 162.865C105.341 164.628 105.133 166.392 104.638 168.086L101.157 179.351C101.923 180.007 107.883 184.959 116.21 183.446C124.718 181.895 128.56 174.866 129.006 174.026C129.166 172.765 129.397 171.449 129.725 170.032C130.21 167.936 130.861 165.881 131.671 163.887" fill="#191818"/>
<path d="M120.607 146.783C123.011 154.267 127.631 160.844 133.857 165.644L138.834 169.923C140.873 169.977 142.912 169.836 144.925 169.503C166.388 165.917 177.825 141.183 180.612 134.702C182.206 127.753 180.167 121.746 176.287 119.939C175.501 119.573 173.962 119.065 171.6 119.548C170.878 119.875 170.096 120.049 169.303 120.059C168.51 120.069 167.724 119.916 166.994 119.608C166.263 119.3 165.604 118.845 165.058 118.27C164.512 117.696 164.09 117.014 163.819 116.269C162.325 113.186 159.836 110.697 156.753 109.203C150.511 106.261 144.592 108.909 143.748 109.304L130.645 122.003C130.746 118.548 128.745 115.529 125.832 114.529C123.049 113.571 119.947 114.638 118.459 116.475C116 119.519 117.009 125.862 122.452 130.607C114.535 137.609 107.884 145.923 102.793 155.185C104.253 157.494 105.1 160.138 105.252 162.865C105.341 164.628 105.133 166.392 104.638 168.086L101.157 179.351C101.923 180.007 107.883 184.959 116.21 183.446C124.718 181.895 128.56 174.866 129.006 174.026C129.166 172.765 129.397 171.449 129.725 170.032C130.21 167.936 130.861 165.881 131.671 163.887" stroke="#6553D5" stroke-width="1.26106" stroke-linecap="round" stroke-linejoin="round"/>
<path d="M124.063 117.06C126.206 119.88 122.759 123.365 122.759 123.365C122.759 123.365 125.799 120.216 122.339 119.456" stroke="#6553D5" stroke-width="1.26106" stroke-linecap="round" stroke-linejoin="round"/>
<path d="M149.696 157.569C151.089 158.199 152.632 158.424 154.147 158.221C155.226 158.069 156.263 157.7 157.195 157.136C157.438 150.922 159.947 145.011 164.248 140.52" stroke="#6553D5" stroke-width="1.26106" stroke-linecap="round" stroke-linejoin="round"/>
<path d="M153.517 143.828C156.606 143.05 159.402 143.714 160.545 145.484C160.872 146.011 161.06 146.613 161.091 147.232" stroke="#6553D5" stroke-width="1.26106" stroke-linecap="round" stroke-linejoin="round"/>
<path d="M138.909 135.959C135.211 131.777 132.493 126.822 130.952 121.457" stroke="#6553D5" stroke-width="1.26106" stroke-linecap="round" stroke-linejoin="round"/>
<path d="M152.362 137.572L145.671 133.709C143.611 132.519 140.975 133.225 139.786 135.286L137.795 138.733C136.605 140.794 137.312 143.429 139.372 144.619L146.063 148.482C148.124 149.672 150.759 148.966 151.949 146.905L153.939 143.458C155.129 141.397 154.423 138.762 152.362 137.572Z" stroke="#6553D5" stroke-width="1.26106" stroke-linecap="round" stroke-linejoin="round"/>
<path d="M170.901 145.281L165.897 143.34C164.271 142.709 162.442 143.516 161.812 145.141L160.757 147.861C160.126 149.487 160.933 151.316 162.558 151.946L167.563 153.887C169.189 154.518 171.017 153.711 171.648 152.086L172.703 149.366C173.333 147.74 172.527 145.911 170.901 145.281Z" stroke="#6553D5" stroke-width="1.26106" stroke-linecap="round" stroke-linejoin="round"/>
<path d="M148.805 141.625C147.347 141.301 145.922 140.847 144.546 140.267C143.987 140.032 143.458 139.784 142.962 139.532C143.072 140.458 143.472 141.326 144.105 142.012C144.662 142.621 145.381 143.058 146.177 143.273C146.407 143.332 146.633 143.403 146.854 143.487" stroke="#6553D5" stroke-width="0.840704" stroke-linecap="round" stroke-linejoin="round"/>
<path d="M144.773 140.877C144.353 141.23 144.492 142.558 145.282 142.924C145.476 142.993 145.683 143.018 145.888 142.995C146.092 142.972 146.289 142.903 146.463 142.793C146.926 142.503 147.274 141.881 147.085 141.494C147.047 141.419 146.959 141.293 146.333 141.074C145.442 140.818 145.021 140.679 144.773 140.877Z" fill="#191818" stroke="#6553D5" stroke-width="0.840704" stroke-linecap="round" stroke-linejoin="round"/>
<path d="M163.597 147.447C164.573 148.236 165.685 148.839 166.88 149.225C167.245 149.343 167.617 149.44 167.994 149.515C167.804 149.696 166.733 150.679 165.4 150.532C164.719 150.416 164.075 150.141 163.521 149.729C163.364 149.618 163.214 149.497 163.071 149.368" stroke="#6553D5" stroke-width="0.840704" stroke-linecap="round" stroke-linejoin="round"/>
<path d="M166.064 149.174C166.136 149.658 165.085 150.524 164.341 150.196C164.176 150.115 164.034 149.993 163.93 149.841C163.826 149.689 163.764 149.513 163.748 149.33C163.718 149.094 163.77 148.855 163.894 148.652C164.019 148.45 164.209 148.296 164.433 148.216C164.509 148.216 164.618 148.216 165.051 148.439C165.707 148.805 166.039 148.964 166.064 149.174Z" fill="#191818" stroke="#6553D5" stroke-width="0.840704" stroke-linecap="round" stroke-linejoin="round"/>
<path d="M147.707 133.428C147.577 133.693 149.914 135.11 152.726 135.66C153.697 135.849 155.295 136.165 155.711 135.589C156.026 135.168 155.639 134.244 154.921 133.819C153.933 133.239 153.029 133.991 150.717 133.895C148.804 133.819 147.791 133.252 147.707 133.428Z" fill="#6553D5" stroke="#6553D5" stroke-width="0.420352" stroke-linecap="round" stroke-linejoin="round"/>
<path d="M172.08 144.433C171.932 144.689 169.709 143.912 167.935 142.277C167.321 141.713 166.312 140.784 166.569 140.141C166.762 139.654 167.662 139.368 168.334 139.616C169.259 139.952 169.099 141.049 170.289 142.621C171.251 143.908 172.176 144.269 172.08 144.433Z" fill="#6553D5" stroke="#6553D5" stroke-width="0.420352" stroke-linecap="round" stroke-linejoin="round"/>
<path d="M148.25 162.676C147.944 163.071 147.516 163.353 147.033 163.478C146.55 163.603 146.039 163.563 145.58 163.366C144.399 162.836 143.937 161.264 144.437 160.482C144.71 160.062 145.219 159.944 145.896 159.793C146.69 159.612 147.577 159.414 148.161 159.923C148.838 160.482 148.901 161.789 148.25 162.676Z" stroke="#6553D5" stroke-width="1.26106" stroke-linecap="round" stroke-linejoin="round"/>
<path d="M86.7858 70.5938C80.5982 68.8494 66.2936 65.2259 64.2549 69.3832C61.6277 74.7343 80.8252 89.951 84.2468 92.6371" stroke="#6553D5" stroke-width="1.26106" stroke-linecap="round" stroke-linejoin="round"/>
<path d="M89.4719 71.2581L94.9239 72.8722" stroke="#6553D5" stroke-width="1.26106" stroke-linecap="round" stroke-linejoin="round"/>
<path d="M97.5173 74.0408L98.8709 74.4359" stroke="#6553D5" stroke-width="1.26106" stroke-linecap="round" stroke-linejoin="round"/>
<path d="M81.0565 72.166C74.3308 70.0642 69.2067 69.8162 68.3828 71.5523C67.332 73.7591 73.4901 78.7403 74.066 79.2027" stroke="#6553D5" stroke-width="1.26106" stroke-linecap="round" stroke-linejoin="round"/>
<path d="M83.196 72.8513L84.2259 73.175" stroke="#6553D5" stroke-width="1.26106" stroke-linecap="round" stroke-linejoin="round"/>
<path d="M68.0591 83.3979C69.2136 84.6114 70.378 85.8276 71.5522 87.0466C72.463 87.9882 73.3709 88.9242 74.2761 89.8546" stroke="#6553D5" stroke-width="1.26106" stroke-linecap="round" stroke-linejoin="round"/>
<path d="M195.337 146.072C198.372 146.913 205.388 148.704 206.388 146.665C207.675 144.042 198.263 136.576 196.582 135.261" stroke="#6553D5" stroke-width="1.26106" stroke-linecap="round" stroke-linejoin="round"/>
<path d="M193.118 145.597L191.743 145.206L190.676 144.912" stroke="#6553D5" stroke-width="1.26106" stroke-linecap="round" stroke-linejoin="round"/>
<path d="M196.948 143.802C198.251 144.168 201.256 144.933 201.685 144.059C202.236 142.932 198.2 139.733 197.481 139.166" stroke="#6553D5" stroke-width="1.26106" stroke-linecap="round" stroke-linejoin="round"/>
<path d="M194.102 142.979L194.854 143.21" stroke="#6553D5" stroke-width="1.26106" stroke-linecap="round" stroke-linejoin="round"/>
<path d="M200.151 133.861C200.941 134.595 201.738 135.332 202.542 136.072L204.405 137.753" stroke="#6553D5" stroke-width="1.26106" stroke-linecap="round" stroke-linejoin="round"/>
<path d="M77.4204 88.5008C77.8672 88.2006 78.25 87.8148 78.547 87.3659C79.0301 86.6168 79.2627 85.7336 79.2111 84.8438C79.1599 85.5609 79.304 86.2786 79.6282 86.9203C79.9524 87.5621 80.4446 88.1039 81.0523 88.4882C80.556 88.8383 80.138 89.2878 79.8248 89.8081C79.3282 90.6581 79.1216 91.6467 79.2363 92.6245C79.3604 91.5444 79.0967 90.4554 78.4923 89.5517C78.2003 89.1405 77.8373 88.7847 77.4204 88.5008Z" fill="#191818" stroke="#6553D5" stroke-width="1.26106" stroke-linecap="round" stroke-linejoin="round"/>
<path d="M61.1824 71.7456C61.7576 71.3585 62.2504 70.8613 62.6326 70.2828C63.2452 69.3202 63.5393 68.1893 63.4733 67.0503C63.4072 67.9746 63.5932 68.8995 64.0115 69.7264C64.4297 70.5533 65.0646 71.2512 65.8483 71.7456C65.2112 72.1912 64.6731 72.7636 64.2678 73.427C63.6283 74.522 63.3627 75.7954 63.5111 77.0547C63.6716 75.6648 63.3335 74.263 62.5569 73.0992C62.1826 72.57 61.7172 72.1117 61.1824 71.7456Z" fill="#191818" stroke="#6553D5" stroke-width="1.26106" stroke-linecap="round" stroke-linejoin="round"/>
<path d="M201.891 149.263C202.341 148.96 202.727 148.572 203.026 148.119C203.508 147.37 203.742 146.487 203.694 145.597C203.643 146.319 203.788 147.041 204.114 147.686C204.441 148.332 204.936 148.877 205.548 149.263C205.048 149.615 204.627 150.067 204.312 150.591C203.812 151.446 203.604 152.44 203.719 153.424C203.843 152.338 203.578 151.244 202.971 150.335C202.678 149.915 202.312 149.552 201.891 149.263Z" fill="#191818" stroke="#6553D5" stroke-width="1.26106" stroke-linecap="round" stroke-linejoin="round"/>
<path d="M75.7305 67.0503C76.4774 66.5474 77.1175 65.9017 77.6136 65.1503C78.4181 63.9013 78.8079 62.4303 78.7276 60.9468C78.6416 62.1475 78.8833 63.349 79.4266 64.4232C79.97 65.4974 80.7948 66.4039 81.813 67.0461C80.9817 67.6324 80.2817 68.3854 79.7574 69.2571C78.9226 70.6825 78.5772 72.3418 78.7738 73.9819C78.9763 72.1729 78.5294 70.3509 77.5128 68.841C77.0305 68.1423 76.4268 67.5358 75.7305 67.0503Z" fill="#191818" stroke="#6553D5" stroke-width="1.26106" stroke-linecap="round" stroke-linejoin="round"/>
<path d="M18.4956 233.35C18.7961 241.968 20.8093 250.44 24.4178 258.272C28.0263 266.103 33.1578 273.139 39.5132 278.967" stroke="#6553D5" stroke-width="1.26106" stroke-linecap="round" stroke-linejoin="round"/>
<path d="M42.4556 281.636L44.0613 282.964L45.583 284.225" fill="#FCEE21"/>
<path d="M42.4556 281.636L44.0613 282.964L45.583 284.225" stroke="#6553D5" stroke-width="1.26106" stroke-linecap="round" stroke-linejoin="round"/>
<path d="M175.816 190.037C175.816 190.037 203.93 192.559 213.127 162.336" stroke="#6553D5" stroke-width="0.840704" stroke-linecap="round" stroke-linejoin="round"/>
<path d="M66.7729 189.15L64.73 187.258" stroke="#6553D5" stroke-width="1.26106" stroke-linecap="round" stroke-linejoin="round"/>
<path d="M213.589 160.482L214.119 158.149" stroke="#6553D5" stroke-width="0.840704" stroke-linecap="round" stroke-linejoin="round"/>
<path d="M129.838 174.656C129.898 174.257 129.933 173.854 129.943 173.45C129.961 172.319 129.766 171.196 129.367 170.137C128.796 171.033 124.424 177.628 115.971 178.599C108.753 179.44 103.612 175.577 102.574 174.766L101.157 179.978C102.809 181.092 109.951 185.653 118.274 183.568C125.017 181.874 129.531 176.548 129.838 174.656Z" fill="#191818" stroke="#6553D5" stroke-width="1.26106" stroke-linecap="round" stroke-linejoin="round"/>
<path d="M148.447 180.44C150.549 181.525 156.047 184.728 158.914 191.327C159.848 193.481 160.416 195.775 160.595 198.116" stroke="#6553D5" stroke-width="1.26106" stroke-linecap="round" stroke-linejoin="round"/>
<path d="M160.743 199.802L160.835 201.588" stroke="#6553D5" stroke-width="1.26106" stroke-linecap="round" stroke-linejoin="round"/>
</svg>
