<svg width="24" height="24" viewBox="0 0 24 24" fill="none" xmlns="http://www.w3.org/2000/svg">
<rect width="24" height="24" fill="none"/>
<path d="M20.0785 13.6733C19.8643 14.7076 19.4523 15.6965 18.8596 16.5835C17.9531 17.9402 16.6646 18.9976 15.1571 19.622C13.6496 20.2464 11.9909 20.4098 10.3905 20.0915C8.79016 19.7731 7.32016 18.9874 6.16637 17.8336C5.01259 16.6798 4.22685 15.2098 3.90853 13.6095C3.5902 12.0092 3.75358 10.3504 4.378 8.84286C5.00242 7.33537 6.05984 6.0469 7.41655 5.14038C8.30352 4.54772 9.29237 4.13572 10.3267 3.92146C10.3638 3.91379 10.3778 3.92023 10.3844 3.92329C10.3964 3.92886 10.4227 3.94587 10.4508 3.98879C10.5121 4.08255 10.5344 4.22754 10.4815 4.35731C9.69294 6.29018 8.80057 9.86123 11.4697 12.5303C14.1388 15.1994 17.7098 14.3071 19.6427 13.5185C19.7725 13.4656 19.9175 13.4879 20.0112 13.5492C20.0541 13.5773 20.0711 13.6036 20.0767 13.6156C20.0798 13.6222 20.0862 13.6362 20.0785 13.6733Z" fill="black" stroke="black" stroke-width="1.5" stroke-linejoin="round"/>
</svg>
